<svg width="183" height="23" viewBox="0 0 183 23" fill="none" xmlns="http://www.w3.org/2000/svg">
<path d="M3.21703 15.335H6.66703V17H1.11703V6.53H3.21703V15.335ZM15.7268 12.665C15.7268 12.965 15.7068 13.235 15.6668 13.475H9.5918C9.6418 14.075 9.8518 14.545 10.2218 14.885C10.5918 15.225 11.0468 15.395 11.5868 15.395C12.3668 15.395 12.9218 15.06 13.2518 14.39H15.5168C15.2768 15.19 14.8168 15.85 14.1368 16.37C13.4568 16.88 12.6218 17.135 11.6318 17.135C10.8318 17.135 10.1118 16.96 9.4718 16.61C8.8418 16.25 8.3468 15.745 7.9868 15.095C7.6368 14.445 7.4618 13.695 7.4618 12.845C7.4618 11.985 7.6368 11.23 7.9868 10.58C8.3368 9.93 8.8268 9.43 9.4568 9.08C10.0868 8.73 10.8118 8.555 11.6318 8.555C12.4218 8.555 13.1268 8.725 13.7468 9.065C14.3768 9.405 14.8618 9.89 15.2018 10.52C15.5518 11.14 15.7268 11.855 15.7268 12.665ZM13.5518 12.065C13.5418 11.525 13.3468 11.095 12.9668 10.775C12.5868 10.445 12.1218 10.28 11.5718 10.28C11.0518 10.28 10.6118 10.44 10.2518 10.76C9.9018 11.07 9.6868 11.505 9.6068 12.065H13.5518ZM21.8496 17L20.1396 14.42L18.6246 17H16.3746L19.0896 12.83L16.3446 8.69H18.7146L20.4096 11.255L21.9396 8.69H24.1896L21.4596 12.83L24.2196 17H21.8496ZM26.4252 7.7C26.0552 7.7 25.7452 7.585 25.4952 7.355C25.2552 7.115 25.1352 6.82 25.1352 6.47C25.1352 6.12 25.2552 5.83 25.4952 5.6C25.7452 5.36 26.0552 5.24 26.4252 5.24C26.7952 5.24 27.1002 5.36 27.3402 5.6C27.5902 5.83 27.7152 6.12 27.7152 6.47C27.7152 6.82 27.5902 7.115 27.3402 7.355C27.1002 7.585 26.7952 7.7 26.4252 7.7ZM27.4602 8.69V17H25.3602V8.69H27.4602ZM28.995 12.845C28.995 11.985 29.17 11.235 29.52 10.595C29.87 9.945 30.355 9.445 30.975 9.095C31.595 8.735 32.305 8.555 33.105 8.555C34.135 8.555 34.985 8.815 35.655 9.335C36.335 9.845 36.79 10.565 37.02 11.495H34.755C34.635 11.135 34.43 10.855 34.14 10.655C33.86 10.445 33.51 10.34 33.09 10.34C32.49 10.34 32.015 10.56 31.665 11C31.315 11.43 31.14 12.045 31.14 12.845C31.14 13.635 31.315 14.25 31.665 14.69C32.015 15.12 32.49 15.335 33.09 15.335C33.94 15.335 34.495 14.955 34.755 14.195H37.02C36.79 15.095 36.335 15.81 35.655 16.34C34.975 16.87 34.125 17.135 33.105 17.135C32.305 17.135 31.595 16.96 30.975 16.61C30.355 16.25 29.87 15.75 29.52 15.11C29.17 14.46 28.995 13.705 28.995 12.845ZM42.2484 17.135C41.4484 17.135 40.7284 16.96 40.0884 16.61C39.4484 16.25 38.9434 15.745 38.5734 15.095C38.2134 14.445 38.0334 13.695 38.0334 12.845C38.0334 11.995 38.2184 11.245 38.5884 10.595C38.9684 9.945 39.4834 9.445 40.1334 9.095C40.7834 8.735 41.5084 8.555 42.3084 8.555C43.1084 8.555 43.8334 8.735 44.4834 9.095C45.1334 9.445 45.6434 9.945 46.0134 10.595C46.3934 11.245 46.5834 11.995 46.5834 12.845C46.5834 13.695 46.3884 14.445 45.9984 15.095C45.6184 15.745 45.0984 16.25 44.4384 16.61C43.7884 16.96 43.0584 17.135 42.2484 17.135ZM42.2484 15.305C42.6284 15.305 42.9834 15.215 43.3134 15.035C43.6534 14.845 43.9234 14.565 44.1234 14.195C44.3234 13.825 44.4234 13.375 44.4234 12.845C44.4234 12.055 44.2134 11.45 43.7934 11.03C43.3834 10.6 42.8784 10.385 42.2784 10.385C41.6784 10.385 41.1734 10.6 40.7634 11.03C40.3634 11.45 40.1634 12.055 40.1634 12.845C40.1634 13.635 40.3584 14.245 40.7484 14.675C41.1484 15.095 41.6484 15.305 42.2484 15.305ZM52.7289 8.57C53.7189 8.57 54.5189 8.885 55.1289 9.515C55.7389 10.135 56.0439 11.005 56.0439 12.125V17H53.9439V12.41C53.9439 11.75 53.7789 11.245 53.4489 10.895C53.1189 10.535 52.6689 10.355 52.0989 10.355C51.5189 10.355 51.0589 10.535 50.7189 10.895C50.3889 11.245 50.2239 11.75 50.2239 12.41V17H48.1239V8.69H50.2239V9.725C50.5039 9.365 50.8589 9.085 51.2889 8.885C51.7289 8.675 52.2089 8.57 52.7289 8.57ZM64.4609 15.005H60.2909L59.6009 17H57.3959L61.1609 6.515H63.6059L67.3709 17H65.1509L64.4609 15.005ZM63.8909 13.325L62.3759 8.945L60.8609 13.325H63.8909ZM70.8782 6.53V17H68.7782V6.53H70.8782Z" fill="white"/>
<path d="M77.1176 17.07C76.6309 17.07 76.1909 16.9867 75.7976 16.82C75.4109 16.6533 75.1042 16.4133 74.8776 16.1C74.6509 15.7867 74.5342 15.4167 74.5276 14.99H76.0276C76.0476 15.2767 76.1476 15.5033 76.3276 15.67C76.5142 15.8367 76.7676 15.92 77.0876 15.92C77.4142 15.92 77.6709 15.8433 77.8576 15.69C78.0442 15.53 78.1376 15.3233 78.1376 15.07C78.1376 14.8633 78.0742 14.6933 77.9476 14.56C77.8209 14.4267 77.6609 14.3233 77.4676 14.25C77.2809 14.17 77.0209 14.0833 76.6876 13.99C76.2342 13.8567 75.8642 13.7267 75.5776 13.6C75.2976 13.4667 75.0542 13.27 74.8476 13.01C74.6476 12.7433 74.5476 12.39 74.5476 11.95C74.5476 11.5367 74.6509 11.1767 74.8576 10.87C75.0642 10.5633 75.3542 10.33 75.7276 10.17C76.1009 10.0033 76.5276 9.92 77.0076 9.92C77.7276 9.92 78.3109 10.0967 78.7576 10.45C79.2109 10.7967 79.4609 11.2833 79.5076 11.91H77.9676C77.9542 11.67 77.8509 11.4733 77.6576 11.32C77.4709 11.16 77.2209 11.08 76.9076 11.08C76.6342 11.08 76.4142 11.15 76.2476 11.29C76.0876 11.43 76.0076 11.6333 76.0076 11.9C76.0076 12.0867 76.0676 12.2433 76.1876 12.37C76.3142 12.49 76.4676 12.59 76.6476 12.67C76.8342 12.7433 77.0942 12.83 77.4276 12.93C77.8809 13.0633 78.2509 13.1967 78.5376 13.33C78.8242 13.4633 79.0709 13.6633 79.2776 13.93C79.4842 14.1967 79.5876 14.5467 79.5876 14.98C79.5876 15.3533 79.4909 15.7 79.2976 16.02C79.1042 16.34 78.8209 16.5967 78.4476 16.79C78.0742 16.9767 77.6309 17.07 77.1176 17.07ZM82.2013 11.15V12.9H84.5513V14.01H82.2013V15.86H84.8513V17H80.8013V10.01H84.8513V11.15H82.2013ZM92.0936 17H90.6936L87.5236 12.21V17H86.1236V10.01H87.5236L90.6936 14.81V10.01H92.0936V17ZM98.2271 10.02V11.15H96.3671V17H94.9671V11.15H93.1071V10.02H98.2271ZM100.649 11.15V12.9H102.999V14.01H100.649V15.86H103.299V17H99.2486V10.01H103.299V11.15H100.649ZM110.541 17H109.141L105.971 12.21V17H104.571V10.01H105.971L109.141 14.81V10.01H110.541V17ZM111.584 13.5C111.584 12.8133 111.738 12.2 112.044 11.66C112.358 11.1133 112.781 10.69 113.314 10.39C113.854 10.0833 114.458 9.93 115.124 9.93C115.904 9.93 116.588 10.13 117.174 10.53C117.761 10.93 118.171 11.4833 118.404 12.19H116.794C116.634 11.8567 116.408 11.6067 116.114 11.44C115.828 11.2733 115.494 11.19 115.114 11.19C114.708 11.19 114.344 11.2867 114.024 11.48C113.711 11.6667 113.464 11.9333 113.284 12.28C113.111 12.6267 113.024 13.0333 113.024 13.5C113.024 13.96 113.111 14.3667 113.284 14.72C113.464 15.0667 113.711 15.3367 114.024 15.53C114.344 15.7167 114.708 15.81 115.114 15.81C115.494 15.81 115.828 15.7267 116.114 15.56C116.408 15.3867 116.634 15.1333 116.794 14.8H118.404C118.171 15.5133 117.761 16.07 117.174 16.47C116.594 16.8633 115.911 17.06 115.124 17.06C114.458 17.06 113.854 16.91 113.314 16.61C112.781 16.3033 112.358 15.88 112.044 15.34C111.738 14.8 111.584 14.1867 111.584 13.5ZM121 11.15V12.9H123.35V14.01H121V15.86H123.65V17H119.6V10.01H123.65V11.15H121ZM130.905 17L129.365 14.28H128.705V17H127.305V10.02H129.925C130.465 10.02 130.925 10.1167 131.305 10.31C131.685 10.4967 131.969 10.7533 132.155 11.08C132.349 11.4 132.445 11.76 132.445 12.16C132.445 12.62 132.312 13.0367 132.045 13.41C131.779 13.7767 131.382 14.03 130.855 14.17L132.525 17H130.905ZM128.705 13.23H129.875C130.255 13.23 130.539 13.14 130.725 12.96C130.912 12.7733 131.005 12.5167 131.005 12.19C131.005 11.87 130.912 11.6233 130.725 11.45C130.539 11.27 130.255 11.18 129.875 11.18H128.705V13.23ZM135.111 11.15V12.9H137.461V14.01H135.111V15.86H137.761V17H133.711V10.01H137.761V11.15H135.111ZM144.124 12.18C144.124 12.5533 144.034 12.9033 143.854 13.23C143.68 13.5567 143.404 13.82 143.024 14.02C142.65 14.22 142.177 14.32 141.604 14.32H140.434V17H139.034V10.02H141.604C142.144 10.02 142.604 10.1133 142.984 10.3C143.364 10.4867 143.647 10.7433 143.834 11.07C144.027 11.3967 144.124 11.7667 144.124 12.18ZM141.544 13.19C141.93 13.19 142.217 13.1033 142.404 12.93C142.59 12.75 142.684 12.5 142.684 12.18C142.684 11.5 142.304 11.16 141.544 11.16H140.434V13.19H141.544ZM150.908 10.02V17H149.508V14.03H146.518V17H145.118V10.02H146.518V12.89H149.508V10.02H150.908ZM155.886 17L154.346 14.28H153.686V17H152.286V10.02H154.906C155.446 10.02 155.906 10.1167 156.286 10.31C156.666 10.4967 156.949 10.7533 157.136 11.08C157.329 11.4 157.426 11.76 157.426 12.16C157.426 12.62 157.292 13.0367 157.026 13.41C156.759 13.7767 156.362 14.03 155.836 14.17L157.506 17H155.886ZM153.686 13.23H154.856C155.236 13.23 155.519 13.14 155.706 12.96C155.892 12.7733 155.986 12.5167 155.986 12.19C155.986 11.87 155.892 11.6233 155.706 11.45C155.519 11.27 155.236 11.18 154.856 11.18H153.686V13.23ZM162.972 15.67H160.192L159.732 17H158.262L160.772 10.01H162.402L164.912 17H163.432L162.972 15.67ZM162.592 14.55L161.582 11.63L160.572 14.55H162.592ZM168.26 17.07C167.773 17.07 167.333 16.9867 166.94 16.82C166.553 16.6533 166.247 16.4133 166.02 16.1C165.793 15.7867 165.677 15.4167 165.67 14.99H167.17C167.19 15.2767 167.29 15.5033 167.47 15.67C167.657 15.8367 167.91 15.92 168.23 15.92C168.557 15.92 168.813 15.8433 169 15.69C169.187 15.53 169.28 15.3233 169.28 15.07C169.28 14.8633 169.217 14.6933 169.09 14.56C168.963 14.4267 168.803 14.3233 168.61 14.25C168.423 14.17 168.163 14.0833 167.83 13.99C167.377 13.8567 167.007 13.7267 166.72 13.6C166.44 13.4667 166.197 13.27 165.99 13.01C165.79 12.7433 165.69 12.39 165.69 11.95C165.69 11.5367 165.793 11.1767 166 10.87C166.207 10.5633 166.497 10.33 166.87 10.17C167.243 10.0033 167.67 9.92 168.15 9.92C168.87 9.92 169.453 10.0967 169.9 10.45C170.353 10.7967 170.603 11.2833 170.65 11.91H169.11C169.097 11.67 168.993 11.4733 168.8 11.32C168.613 11.16 168.363 11.08 168.05 11.08C167.777 11.08 167.557 11.15 167.39 11.29C167.23 11.43 167.15 11.6333 167.15 11.9C167.15 12.0867 167.21 12.2433 167.33 12.37C167.457 12.49 167.61 12.59 167.79 12.67C167.977 12.7433 168.237 12.83 168.57 12.93C169.023 13.0633 169.393 13.1967 169.68 13.33C169.967 13.4633 170.213 13.6633 170.42 13.93C170.627 14.1967 170.73 14.5467 170.73 14.98C170.73 15.3533 170.633 15.7 170.44 16.02C170.247 16.34 169.963 16.5967 169.59 16.79C169.217 16.9767 168.773 17.07 168.26 17.07ZM173.344 11.15V12.9H175.694V14.01H173.344V15.86H175.994V17H171.944V10.01H175.994V11.15H173.344ZM180.866 17L179.326 14.28H178.666V17H177.266V10.02H179.886C180.426 10.02 180.886 10.1167 181.266 10.31C181.646 10.4967 181.93 10.7533 182.116 11.08C182.31 11.4 182.406 11.76 182.406 12.16C182.406 12.62 182.273 13.0367 182.006 13.41C181.74 13.7767 181.343 14.03 180.816 14.17L182.486 17H180.866ZM178.666 13.23H179.836C180.216 13.23 180.5 13.14 180.686 12.96C180.873 12.7733 180.966 12.5167 180.966 12.19C180.966 11.87 180.873 11.6233 180.686 11.45C180.5 11.27 180.216 11.18 179.836 11.18H178.666V13.23Z" fill="url(#paint0_linear_1260_11)"/>
<defs>
<linearGradient id="paint0_linear_1260_11" x1="74" y1="6" x2="115.68" y2="87.3804" gradientUnits="userSpaceOnUse">
<stop stop-color="white" stop-opacity="0.81"/>
<stop offset="1" stop-color="#DBDBDB" stop-opacity="0"/>
</linearGradient>
</defs>
</svg>
