<svg width="205" height="30" viewBox="0 0 205 30" fill="none" xmlns="http://www.w3.org/2000/svg">
<path d="M4.28938 19.78H8.88938V22H1.48938V8.04H4.28938V19.78ZM20.9691 16.22C20.9691 16.62 20.9424 16.98 20.8891 17.3H12.7891C12.8557 18.1 13.1357 18.7267 13.6291 19.18C14.1224 19.6333 14.7291 19.86 15.4491 19.86C16.4891 19.86 17.2291 19.4133 17.6691 18.52H20.6891C20.3691 19.5867 19.7557 20.4667 18.8491 21.16C17.9424 21.84 16.8291 22.18 15.5091 22.18C14.4424 22.18 13.4824 21.9467 12.6291 21.48C11.7891 21 11.1291 20.3267 10.6491 19.46C10.1824 18.5933 9.94906 17.5933 9.94906 16.46C9.94906 15.3133 10.1824 14.3067 10.6491 13.44C11.1157 12.5733 11.7691 11.9067 12.6091 11.44C13.4491 10.9733 14.4157 10.74 15.5091 10.74C16.5624 10.74 17.5024 10.9667 18.3291 11.42C19.1691 11.8733 19.8157 12.52 20.2691 13.36C20.7357 14.1867 20.9691 15.14 20.9691 16.22ZM18.0691 15.42C18.0557 14.7 17.7957 14.1267 17.2891 13.7C16.7824 13.26 16.1624 13.04 15.4291 13.04C14.7357 13.04 14.1491 13.2533 13.6691 13.68C13.2024 14.0933 12.9157 14.6733 12.8091 15.42H18.0691ZM29.1328 22L26.8528 18.56L24.8328 22H21.8328L25.4528 16.44L21.7928 10.92H24.9528L27.2128 14.34L29.2528 10.92H32.2528L28.6128 16.44L32.2928 22H29.1328ZM35.2336 9.6C34.7403 9.6 34.3269 9.44667 33.9936 9.14C33.6736 8.82 33.5136 8.42667 33.5136 7.96C33.5136 7.49333 33.6736 7.10667 33.9936 6.8C34.3269 6.48 34.7403 6.32 35.2336 6.32C35.7269 6.32 36.1336 6.48 36.4536 6.8C36.7869 7.10667 36.9536 7.49333 36.9536 7.96C36.9536 8.42667 36.7869 8.82 36.4536 9.14C36.1336 9.44667 35.7269 9.6 35.2336 9.6ZM36.6136 10.92V22H33.8136V10.92H36.6136ZM38.66 16.46C38.66 15.3133 38.8933 14.3133 39.36 13.46C39.8267 12.5933 40.4733 11.9267 41.3 11.46C42.1267 10.98 43.0733 10.74 44.14 10.74C45.5133 10.74 46.6467 11.0867 47.54 11.78C48.4467 12.46 49.0533 13.42 49.36 14.66H46.34C46.18 14.18 45.9067 13.8067 45.52 13.54C45.1467 13.26 44.68 13.12 44.12 13.12C43.32 13.12 42.6867 13.4133 42.22 14C41.7533 14.5733 41.52 15.3933 41.52 16.46C41.52 17.5133 41.7533 18.3333 42.22 18.92C42.6867 19.4933 43.32 19.78 44.12 19.78C45.2533 19.78 45.9933 19.2733 46.34 18.26H49.36C49.0533 19.46 48.4467 20.4133 47.54 21.12C46.6333 21.8267 45.5 22.18 44.14 22.18C43.0733 22.18 42.1267 21.9467 41.3 21.48C40.4733 21 39.8267 20.3333 39.36 19.48C38.8933 18.6133 38.66 17.6067 38.66 16.46ZM56.3313 22.18C55.2646 22.18 54.3046 21.9467 53.4513 21.48C52.5979 21 51.9246 20.3267 51.4313 19.46C50.9513 18.5933 50.7113 17.5933 50.7113 16.46C50.7113 15.3267 50.9579 14.3267 51.4513 13.46C51.9579 12.5933 52.6446 11.9267 53.5113 11.46C54.3779 10.98 55.3446 10.74 56.4113 10.74C57.4779 10.74 58.4446 10.98 59.3113 11.46C60.1779 11.9267 60.8579 12.5933 61.3513 13.46C61.8579 14.3267 62.1113 15.3267 62.1113 16.46C62.1113 17.5933 61.8513 18.5933 61.3312 19.46C60.8246 20.3267 60.1313 21 59.2513 21.48C58.3846 21.9467 57.4113 22.18 56.3313 22.18ZM56.3313 19.74C56.8379 19.74 57.3113 19.62 57.7513 19.38C58.2046 19.1267 58.5646 18.7533 58.8313 18.26C59.0979 17.7667 59.2313 17.1667 59.2313 16.46C59.2313 15.4067 58.9513 14.6 58.3913 14.04C57.8446 13.4667 57.1713 13.18 56.3713 13.18C55.5713 13.18 54.8979 13.4667 54.3513 14.04C53.8179 14.6 53.5513 15.4067 53.5513 16.46C53.5513 17.5133 53.8113 18.3267 54.3313 18.9C54.8646 19.46 55.5313 19.74 56.3313 19.74ZM70.3052 10.76C71.6252 10.76 72.6918 11.18 73.5052 12.02C74.3185 12.8467 74.7252 14.0067 74.7252 15.5V22H71.9252V15.88C71.9252 15 71.7052 14.3267 71.2652 13.86C70.8252 13.38 70.2252 13.14 69.4652 13.14C68.6918 13.14 68.0785 13.38 67.6252 13.86C67.1852 14.3267 66.9652 15 66.9652 15.88V22H64.1652V10.92H66.9652V12.3C67.3385 11.82 67.8118 11.4467 68.3852 11.18C68.9718 10.9 69.6118 10.76 70.3052 10.76ZM85.9478 19.34H80.3878L79.4678 22H76.5278L81.5478 8.02H84.8078L89.8278 22H86.8678L85.9478 19.34ZM85.1878 17.1L83.1678 11.26L81.1478 17.1H85.1878ZM94.5042 8.04V22H91.7042V8.04H94.5042Z" fill="white"/>
<path d="M99.1176 22.07C98.6309 22.07 98.1909 21.9867 97.7976 21.82C97.4109 21.6533 97.1042 21.4133 96.8776 21.1C96.6509 20.7867 96.5342 20.4167 96.5276 19.99H98.0276C98.0476 20.2767 98.1476 20.5033 98.3276 20.67C98.5142 20.8367 98.7676 20.92 99.0876 20.92C99.4142 20.92 99.6709 20.8433 99.8576 20.69C100.044 20.53 100.138 20.3233 100.138 20.07C100.138 19.8633 100.074 19.6933 99.9476 19.56C99.8209 19.4267 99.6609 19.3233 99.4676 19.25C99.2809 19.17 99.0209 19.0833 98.6876 18.99C98.2342 18.8567 97.8642 18.7267 97.5776 18.6C97.2976 18.4667 97.0542 18.27 96.8476 18.01C96.6476 17.7433 96.5476 17.39 96.5476 16.95C96.5476 16.5367 96.6509 16.1767 96.8576 15.87C97.0642 15.5633 97.3542 15.33 97.7276 15.17C98.1009 15.0033 98.5276 14.92 99.0076 14.92C99.7276 14.92 100.311 15.0967 100.758 15.45C101.211 15.7967 101.461 16.2833 101.508 16.91H99.9676C99.9542 16.67 99.8509 16.4733 99.6576 16.32C99.4709 16.16 99.2209 16.08 98.9076 16.08C98.6342 16.08 98.4142 16.15 98.2476 16.29C98.0876 16.43 98.0076 16.6333 98.0076 16.9C98.0076 17.0867 98.0676 17.2433 98.1876 17.37C98.3142 17.49 98.4676 17.59 98.6476 17.67C98.8342 17.7433 99.0942 17.83 99.4276 17.93C99.8809 18.0633 100.251 18.1967 100.538 18.33C100.824 18.4633 101.071 18.6633 101.278 18.93C101.484 19.1967 101.588 19.5467 101.588 19.98C101.588 20.3533 101.491 20.7 101.298 21.02C101.104 21.34 100.821 21.5967 100.448 21.79C100.074 21.9767 99.6309 22.07 99.1176 22.07ZM104.201 16.15V17.9H106.551V19.01H104.201V20.86H106.851V22H102.801V15.01H106.851V16.15H104.201ZM114.094 22H112.694L109.524 17.21V22H108.124V15.01H109.524L112.694 19.81V15.01H114.094V22ZM120.227 15.02V16.15H118.367V22H116.967V16.15H115.107V15.02H120.227ZM122.649 16.15V17.9H124.999V19.01H122.649V20.86H125.299V22H121.249V15.01H125.299V16.15H122.649ZM132.541 22H131.141L127.971 17.21V22H126.571V15.01H127.971L131.141 19.81V15.01H132.541V22ZM133.584 18.5C133.584 17.8133 133.738 17.2 134.044 16.66C134.358 16.1133 134.781 15.69 135.314 15.39C135.854 15.0833 136.458 14.93 137.124 14.93C137.904 14.93 138.588 15.13 139.174 15.53C139.761 15.93 140.171 16.4833 140.404 17.19H138.794C138.634 16.8567 138.408 16.6067 138.114 16.44C137.828 16.2733 137.494 16.19 137.114 16.19C136.708 16.19 136.344 16.2867 136.024 16.48C135.711 16.6667 135.464 16.9333 135.284 17.28C135.111 17.6267 135.024 18.0333 135.024 18.5C135.024 18.96 135.111 19.3667 135.284 19.72C135.464 20.0667 135.711 20.3367 136.024 20.53C136.344 20.7167 136.708 20.81 137.114 20.81C137.494 20.81 137.828 20.7267 138.114 20.56C138.408 20.3867 138.634 20.1333 138.794 19.8H140.404C140.171 20.5133 139.761 21.07 139.174 21.47C138.594 21.8633 137.911 22.06 137.124 22.06C136.458 22.06 135.854 21.91 135.314 21.61C134.781 21.3033 134.358 20.88 134.044 20.34C133.738 19.8 133.584 19.1867 133.584 18.5ZM143 16.15V17.9H145.35V19.01H143V20.86H145.65V22H141.6V15.01H145.65V16.15H143ZM152.905 22L151.365 19.28H150.705V22H149.305V15.02H151.925C152.465 15.02 152.925 15.1167 153.305 15.31C153.685 15.4967 153.969 15.7533 154.155 16.08C154.349 16.4 154.445 16.76 154.445 17.16C154.445 17.62 154.312 18.0367 154.045 18.41C153.779 18.7767 153.382 19.03 152.855 19.17L154.525 22H152.905ZM150.705 18.23H151.875C152.255 18.23 152.539 18.14 152.725 17.96C152.912 17.7733 153.005 17.5167 153.005 17.19C153.005 16.87 152.912 16.6233 152.725 16.45C152.539 16.27 152.255 16.18 151.875 16.18H150.705V18.23ZM157.111 16.15V17.9H159.461V19.01H157.111V20.86H159.761V22H155.711V15.01H159.761V16.15H157.111ZM166.124 17.18C166.124 17.5533 166.034 17.9033 165.854 18.23C165.68 18.5567 165.404 18.82 165.024 19.02C164.65 19.22 164.177 19.32 163.604 19.32H162.434V22H161.034V15.02H163.604C164.144 15.02 164.604 15.1133 164.984 15.3C165.364 15.4867 165.647 15.7433 165.834 16.07C166.027 16.3967 166.124 16.7667 166.124 17.18ZM163.544 18.19C163.93 18.19 164.217 18.1033 164.404 17.93C164.59 17.75 164.684 17.5 164.684 17.18C164.684 16.5 164.304 16.16 163.544 16.16H162.434V18.19H163.544ZM172.908 15.02V22H171.508V19.03H168.518V22H167.118V15.02H168.518V17.89H171.508V15.02H172.908ZM177.886 22L176.346 19.28H175.686V22H174.286V15.02H176.906C177.446 15.02 177.906 15.1167 178.286 15.31C178.666 15.4967 178.949 15.7533 179.136 16.08C179.329 16.4 179.426 16.76 179.426 17.16C179.426 17.62 179.292 18.0367 179.026 18.41C178.759 18.7767 178.362 19.03 177.836 19.17L179.506 22H177.886ZM175.686 18.23H176.856C177.236 18.23 177.519 18.14 177.706 17.96C177.892 17.7733 177.986 17.5167 177.986 17.19C177.986 16.87 177.892 16.6233 177.706 16.45C177.519 16.27 177.236 16.18 176.856 16.18H175.686V18.23ZM184.972 20.67H182.192L181.732 22H180.262L182.772 15.01H184.402L186.912 22H185.432L184.972 20.67ZM184.592 19.55L183.582 16.63L182.572 19.55H184.592ZM190.26 22.07C189.773 22.07 189.333 21.9867 188.94 21.82C188.553 21.6533 188.247 21.4133 188.02 21.1C187.793 20.7867 187.677 20.4167 187.67 19.99H189.17C189.19 20.2767 189.29 20.5033 189.47 20.67C189.657 20.8367 189.91 20.92 190.23 20.92C190.557 20.92 190.813 20.8433 191 20.69C191.187 20.53 191.28 20.3233 191.28 20.07C191.28 19.8633 191.217 19.6933 191.09 19.56C190.963 19.4267 190.803 19.3233 190.61 19.25C190.423 19.17 190.163 19.0833 189.83 18.99C189.377 18.8567 189.007 18.7267 188.72 18.6C188.44 18.4667 188.197 18.27 187.99 18.01C187.79 17.7433 187.69 17.39 187.69 16.95C187.69 16.5367 187.793 16.1767 188 15.87C188.207 15.5633 188.497 15.33 188.87 15.17C189.243 15.0033 189.67 14.92 190.15 14.92C190.87 14.92 191.453 15.0967 191.9 15.45C192.353 15.7967 192.603 16.2833 192.65 16.91H191.11C191.097 16.67 190.993 16.4733 190.8 16.32C190.613 16.16 190.363 16.08 190.05 16.08C189.777 16.08 189.557 16.15 189.39 16.29C189.23 16.43 189.15 16.6333 189.15 16.9C189.15 17.0867 189.21 17.2433 189.33 17.37C189.457 17.49 189.61 17.59 189.79 17.67C189.977 17.7433 190.237 17.83 190.57 17.93C191.023 18.0633 191.393 18.1967 191.68 18.33C191.967 18.4633 192.213 18.6633 192.42 18.93C192.627 19.1967 192.73 19.5467 192.73 19.98C192.73 20.3533 192.633 20.7 192.44 21.02C192.247 21.34 191.963 21.5967 191.59 21.79C191.217 21.9767 190.773 22.07 190.26 22.07ZM195.344 16.15V17.9H197.694V19.01H195.344V20.86H197.994V22H193.944V15.01H197.994V16.15H195.344ZM202.866 22L201.326 19.28H200.666V22H199.266V15.02H201.886C202.426 15.02 202.886 15.1167 203.266 15.31C203.646 15.4967 203.93 15.7533 204.116 16.08C204.31 16.4 204.406 16.76 204.406 17.16C204.406 17.62 204.273 18.0367 204.006 18.41C203.74 18.7767 203.343 19.03 202.816 19.17L204.486 22H202.866ZM200.666 18.23H201.836C202.216 18.23 202.5 18.14 202.686 17.96C202.873 17.7733 202.966 17.5167 202.966 17.19C202.966 16.87 202.873 16.6233 202.686 16.45C202.5 16.27 202.216 16.18 201.836 16.18H200.666V18.23Z" fill="url(#paint0_linear_1260_11)"/>
<defs>
<linearGradient id="paint0_linear_1260_11" x1="96" y1="11" x2="137.68" y2="92.3804" gradientUnits="userSpaceOnUse">
<stop stop-color="white" stop-opacity="0.81"/>
<stop offset="1" stop-color="#DBDBDB" stop-opacity="0"/>
</linearGradient>
</defs>
</svg>
