<svg width="132" height="23" viewBox="0 0 132 23" fill="none" xmlns="http://www.w3.org/2000/svg">
<path d="M3.21703 15.335H6.66703V17H1.11703V6.53H3.21703V15.335ZM15.7268 12.665C15.7268 12.965 15.7068 13.235 15.6668 13.475H9.5918C9.6418 14.075 9.8518 14.545 10.2218 14.885C10.5918 15.225 11.0468 15.395 11.5868 15.395C12.3668 15.395 12.9218 15.06 13.2518 14.39H15.5168C15.2768 15.19 14.8168 15.85 14.1368 16.37C13.4568 16.88 12.6218 17.135 11.6318 17.135C10.8318 17.135 10.1118 16.96 9.4718 16.61C8.8418 16.25 8.3468 15.745 7.9868 15.095C7.6368 14.445 7.4618 13.695 7.4618 12.845C7.4618 11.985 7.6368 11.23 7.9868 10.58C8.3368 9.93 8.8268 9.43 9.4568 9.08C10.0868 8.73 10.8118 8.555 11.6318 8.555C12.4218 8.555 13.1268 8.725 13.7468 9.065C14.3768 9.405 14.8618 9.89 15.2018 10.52C15.5518 11.14 15.7268 11.855 15.7268 12.665ZM13.5518 12.065C13.5418 11.525 13.3468 11.095 12.9668 10.775C12.5868 10.445 12.1218 10.28 11.5718 10.28C11.0518 10.28 10.6118 10.44 10.2518 10.76C9.9018 11.07 9.6868 11.505 9.6068 12.065H13.5518ZM21.8496 17L20.1396 14.42L18.6246 17H16.3746L19.0896 12.83L16.3446 8.69H18.7146L20.4096 11.255L21.9396 8.69H24.1896L21.4596 12.83L24.2196 17H21.8496ZM26.4252 7.7C26.0552 7.7 25.7452 7.585 25.4952 7.355C25.2552 7.115 25.1352 6.82 25.1352 6.47C25.1352 6.12 25.2552 5.83 25.4952 5.6C25.7452 5.36 26.0552 5.24 26.4252 5.24C26.7952 5.24 27.1002 5.36 27.3402 5.6C27.5902 5.83 27.7152 6.12 27.7152 6.47C27.7152 6.82 27.5902 7.115 27.3402 7.355C27.1002 7.585 26.7952 7.7 26.4252 7.7ZM27.4602 8.69V17H25.3602V8.69H27.4602ZM28.995 12.845C28.995 11.985 29.17 11.235 29.52 10.595C29.87 9.945 30.355 9.445 30.975 9.095C31.595 8.735 32.305 8.555 33.105 8.555C34.135 8.555 34.985 8.815 35.655 9.335C36.335 9.845 36.79 10.565 37.02 11.495H34.755C34.635 11.135 34.43 10.855 34.14 10.655C33.86 10.445 33.51 10.34 33.09 10.34C32.49 10.34 32.015 10.56 31.665 11C31.315 11.43 31.14 12.045 31.14 12.845C31.14 13.635 31.315 14.25 31.665 14.69C32.015 15.12 32.49 15.335 33.09 15.335C33.94 15.335 34.495 14.955 34.755 14.195H37.02C36.79 15.095 36.335 15.81 35.655 16.34C34.975 16.87 34.125 17.135 33.105 17.135C32.305 17.135 31.595 16.96 30.975 16.61C30.355 16.25 29.87 15.75 29.52 15.11C29.17 14.46 28.995 13.705 28.995 12.845ZM42.2484 17.135C41.4484 17.135 40.7284 16.96 40.0884 16.61C39.4484 16.25 38.9434 15.745 38.5734 15.095C38.2134 14.445 38.0334 13.695 38.0334 12.845C38.0334 11.995 38.2184 11.245 38.5884 10.595C38.9684 9.945 39.4834 9.445 40.1334 9.095C40.7834 8.735 41.5084 8.555 42.3084 8.555C43.1084 8.555 43.8334 8.735 44.4834 9.095C45.1334 9.445 45.6434 9.945 46.0134 10.595C46.3934 11.245 46.5834 11.995 46.5834 12.845C46.5834 13.695 46.3884 14.445 45.9984 15.095C45.6184 15.745 45.0984 16.25 44.4384 16.61C43.7884 16.96 43.0584 17.135 42.2484 17.135ZM42.2484 15.305C42.6284 15.305 42.9834 15.215 43.3134 15.035C43.6534 14.845 43.9234 14.565 44.1234 14.195C44.3234 13.825 44.4234 13.375 44.4234 12.845C44.4234 12.055 44.2134 11.45 43.7934 11.03C43.3834 10.6 42.8784 10.385 42.2784 10.385C41.6784 10.385 41.1734 10.6 40.7634 11.03C40.3634 11.45 40.1634 12.055 40.1634 12.845C40.1634 13.635 40.3584 14.245 40.7484 14.675C41.1484 15.095 41.6484 15.305 42.2484 15.305ZM52.7289 8.57C53.7189 8.57 54.5189 8.885 55.1289 9.515C55.7389 10.135 56.0439 11.005 56.0439 12.125V17H53.9439V12.41C53.9439 11.75 53.7789 11.245 53.4489 10.895C53.1189 10.535 52.6689 10.355 52.0989 10.355C51.5189 10.355 51.0589 10.535 50.7189 10.895C50.3889 11.245 50.2239 11.75 50.2239 12.41V17H48.1239V8.69H50.2239V9.725C50.5039 9.365 50.8589 9.085 51.2889 8.885C51.7289 8.675 52.2089 8.57 52.7289 8.57ZM64.4609 15.005H60.2909L59.6009 17H57.3959L61.1609 6.515H63.6059L67.3709 17H65.1509L64.4609 15.005ZM63.8909 13.325L62.3759 8.945L60.8609 13.325H63.8909ZM70.8782 6.53V17H68.7782V6.53H70.8782Z" fill="white"/>
<path d="M78.8088 17.035C78.5655 17.035 78.3455 16.9933 78.1488 16.91C77.9555 16.8267 77.8021 16.7067 77.6888 16.55C77.5755 16.3933 77.5171 16.2083 77.5138 15.995H78.2638C78.2738 16.1383 78.3238 16.2517 78.4138 16.335C78.5071 16.4183 78.6338 16.46 78.7938 16.46C78.9571 16.46 79.0855 16.4217 79.1788 16.345C79.2721 16.265 79.3188 16.1617 79.3188 16.035C79.3188 15.9317 79.2871 15.8467 79.2238 15.78C79.1605 15.7133 79.0805 15.6617 78.9838 15.625C78.8905 15.585 78.7605 15.5417 78.5938 15.495C78.3671 15.4283 78.1821 15.3633 78.0388 15.3C77.8988 15.2333 77.7771 15.135 77.6738 15.005C77.5738 14.8717 77.5238 14.695 77.5238 14.475C77.5238 14.2683 77.5755 14.0883 77.6788 13.935C77.7821 13.7817 77.9271 13.665 78.1138 13.585C78.3005 13.5017 78.5138 13.46 78.7538 13.46C79.1138 13.46 79.4055 13.5483 79.6288 13.725C79.8555 13.8983 79.9805 14.1417 80.0038 14.455H79.2338C79.2271 14.335 79.1755 14.2367 79.0788 14.16C78.9855 14.08 78.8605 14.04 78.7038 14.04C78.5671 14.04 78.4571 14.075 78.3738 14.145C78.2938 14.215 78.2538 14.3167 78.2538 14.45C78.2538 14.5433 78.2838 14.6217 78.3438 14.685C78.4071 14.745 78.4838 14.795 78.5738 14.835C78.6671 14.8717 78.7971 14.915 78.9638 14.965C79.1905 15.0317 79.3755 15.0983 79.5188 15.165C79.6621 15.2317 79.7855 15.3317 79.8888 15.465C79.9921 15.5983 80.0438 15.7733 80.0438 15.99C80.0438 16.1767 79.9955 16.35 79.8988 16.51C79.8021 16.67 79.6605 16.7983 79.4738 16.895C79.2871 16.9883 79.0655 17.035 78.8088 17.035ZM81.3507 14.075V14.95H82.5257V15.505H81.3507V16.43H82.6757V17H80.6507V13.505H82.6757V14.075H81.3507ZM86.2968 17H85.5968L84.0118 14.605V17H83.3118V13.505H84.0118L85.5968 15.905V13.505H86.2968V17ZM89.3636 13.51V14.075H88.4336V17H87.7336V14.075H86.8036V13.51H89.3636ZM90.5743 14.075V14.95H91.7493V15.505H90.5743V16.43H91.8993V17H89.8743V13.505H91.8993V14.075H90.5743ZM95.5204 17H94.8204L93.2354 14.605V17H92.5354V13.505H93.2354L94.8204 15.905V13.505H95.5204V17ZM96.0422 15.25C96.0422 14.9067 96.1189 14.6 96.2722 14.33C96.4289 14.0567 96.6405 13.845 96.9072 13.695C97.1772 13.5417 97.4789 13.465 97.8122 13.465C98.2022 13.465 98.5439 13.565 98.8372 13.765C99.1305 13.965 99.3355 14.2417 99.4522 14.595H98.6472C98.5672 14.4283 98.4539 14.3033 98.3072 14.22C98.1639 14.1367 97.9972 14.095 97.8072 14.095C97.6039 14.095 97.4222 14.1433 97.2622 14.24C97.1055 14.3333 96.9822 14.4667 96.8922 14.64C96.8055 14.8133 96.7622 15.0167 96.7622 15.25C96.7622 15.48 96.8055 15.6833 96.8922 15.86C96.9822 16.0333 97.1055 16.1683 97.2622 16.265C97.4222 16.3583 97.6039 16.405 97.8072 16.405C97.9972 16.405 98.1639 16.3633 98.3072 16.28C98.4539 16.1933 98.5672 16.0667 98.6472 15.9H99.4522C99.3355 16.2567 99.1305 16.535 98.8372 16.735C98.5472 16.9317 98.2055 17.03 97.8122 17.03C97.4789 17.03 97.1772 16.955 96.9072 16.805C96.6405 16.6517 96.4289 16.44 96.2722 16.17C96.1189 15.9 96.0422 15.5933 96.0422 15.25ZM100.75 14.075V14.95H101.925V15.505H100.75V16.43H102.075V17H100.05V13.505H102.075V14.075H100.75ZM105.703 17L104.933 15.64H104.603V17H103.903V13.51H105.213C105.483 13.51 105.713 13.5583 105.903 13.655C106.093 13.7483 106.234 13.8767 106.328 14.04C106.424 14.2 106.473 14.38 106.473 14.58C106.473 14.81 106.406 15.0183 106.273 15.205C106.139 15.3883 105.941 15.515 105.678 15.585L106.513 17H105.703ZM104.603 15.115H105.188C105.378 15.115 105.519 15.07 105.613 14.98C105.706 14.8867 105.753 14.7583 105.753 14.595C105.753 14.435 105.706 14.3117 105.613 14.225C105.519 14.135 105.378 14.09 105.188 14.09H104.603V15.115ZM107.806 14.075V14.95H108.981V15.505H107.806V16.43H109.131V17H107.106V13.505H109.131V14.075H107.806ZM112.312 14.59C112.312 14.7767 112.267 14.9517 112.177 15.115C112.09 15.2783 111.952 15.41 111.762 15.51C111.575 15.61 111.339 15.66 111.052 15.66H110.467V17H109.767V13.51H111.052C111.322 13.51 111.552 13.5567 111.742 13.65C111.932 13.7433 112.074 13.8717 112.167 14.035C112.264 14.1983 112.312 14.3833 112.312 14.59ZM111.022 15.095C111.215 15.095 111.359 15.0517 111.452 14.965C111.545 14.875 111.592 14.75 111.592 14.59C111.592 14.25 111.402 14.08 111.022 14.08H110.467V15.095H111.022ZM115.704 13.51V17H115.004V15.515H113.509V17H112.809V13.51H113.509V14.945H115.004V13.51H115.704ZM118.193 17L117.423 15.64H117.093V17H116.393V13.51H117.703C117.973 13.51 118.203 13.5583 118.393 13.655C118.583 13.7483 118.725 13.8767 118.818 14.04C118.915 14.2 118.963 14.38 118.963 14.58C118.963 14.81 118.896 15.0183 118.763 15.205C118.63 15.3883 118.431 15.515 118.168 15.585L119.003 17H118.193ZM117.093 15.115H117.678C117.868 15.115 118.01 15.07 118.103 14.98C118.196 14.8867 118.243 14.7583 118.243 14.595C118.243 14.435 118.196 14.3117 118.103 14.225C118.01 14.135 117.868 14.09 117.678 14.09H117.093V15.115ZM121.736 16.335H120.346L120.116 17H119.381L120.636 13.505H121.451L122.706 17H121.966L121.736 16.335ZM121.546 15.775L121.041 14.315L120.536 15.775H121.546ZM124.38 17.035C124.137 17.035 123.917 16.9933 123.72 16.91C123.527 16.8267 123.373 16.7067 123.26 16.55C123.147 16.3933 123.088 16.2083 123.085 15.995H123.835C123.845 16.1383 123.895 16.2517 123.985 16.335C124.078 16.4183 124.205 16.46 124.365 16.46C124.528 16.46 124.657 16.4217 124.75 16.345C124.843 16.265 124.89 16.1617 124.89 16.035C124.89 15.9317 124.858 15.8467 124.795 15.78C124.732 15.7133 124.652 15.6617 124.555 15.625C124.462 15.585 124.332 15.5417 124.165 15.495C123.938 15.4283 123.753 15.3633 123.61 15.3C123.47 15.2333 123.348 15.135 123.245 15.005C123.145 14.8717 123.095 14.695 123.095 14.475C123.095 14.2683 123.147 14.0883 123.25 13.935C123.353 13.7817 123.498 13.665 123.685 13.585C123.872 13.5017 124.085 13.46 124.325 13.46C124.685 13.46 124.977 13.5483 125.2 13.725C125.427 13.8983 125.552 14.1417 125.575 14.455H124.805C124.798 14.335 124.747 14.2367 124.65 14.16C124.557 14.08 124.432 14.04 124.275 14.04C124.138 14.04 124.028 14.075 123.945 14.145C123.865 14.215 123.825 14.3167 123.825 14.45C123.825 14.5433 123.855 14.6217 123.915 14.685C123.978 14.745 124.055 14.795 124.145 14.835C124.238 14.8717 124.368 14.915 124.535 14.965C124.762 15.0317 124.947 15.0983 125.09 15.165C125.233 15.2317 125.357 15.3317 125.46 15.465C125.563 15.5983 125.615 15.7733 125.615 15.99C125.615 16.1767 125.567 16.35 125.47 16.51C125.373 16.67 125.232 16.7983 125.045 16.895C124.858 16.9883 124.637 17.035 124.38 17.035ZM126.922 14.075V14.95H128.097V15.505H126.922V16.43H128.247V17H126.222V13.505H128.247V14.075H126.922ZM130.683 17L129.913 15.64H129.583V17H128.883V13.51H130.193C130.463 13.51 130.693 13.5583 130.883 13.655C131.073 13.7483 131.215 13.8767 131.308 14.04C131.405 14.2 131.453 14.38 131.453 14.58C131.453 14.81 131.386 15.0183 131.253 15.205C131.12 15.3883 130.921 15.515 130.658 15.585L131.493 17H130.683ZM129.583 15.115H130.168C130.358 15.115 130.5 15.07 130.593 14.98C130.686 14.8867 130.733 14.7583 130.733 14.595C130.733 14.435 130.686 14.3117 130.593 14.225C130.5 14.135 130.358 14.09 130.168 14.09H129.583V15.115Z" fill="url(#paint0_linear_1260_11)"/>
<defs>
<linearGradient id="paint0_linear_1260_11" x1="77" y1="11" x2="99.9369" y2="53.3711" gradientUnits="userSpaceOnUse">
<stop stop-color="white" stop-opacity="0.81"/>
<stop offset="1" stop-color="#DBDBDB" stop-opacity="0"/>
</linearGradient>
</defs>
</svg>
